<svg xmlns="http://www.w3.org/2000/svg" width="20" height="20" viewBox="0 0 20 20" fill="none">
  <path d="M9.99935 1.66797C5.39102 1.66797 1.66602 5.39297 1.66602 10.0013C1.66602 14.6096 5.39102 18.3346 9.99935 18.3346C14.6077 18.3346 18.3327 14.6096 18.3327 10.0013C18.3327 5.39297 14.6077 1.66797 9.99935 1.66797ZM14.166 12.993L12.991 14.168L9.99935 11.1763L7.00768 14.168L5.83268 12.993L8.82435 10.0013L5.83268 7.00964L7.00768 5.83464L9.99935 8.8263L12.991 5.83464L14.166 7.00964L11.1743 10.0013L14.166 12.993Z" fill="#3F51B5"/>
  <path d="M9.99935 1.66797C5.39102 1.66797 1.66602 5.39297 1.66602 10.0013C1.66602 14.6096 5.39102 18.3346 9.99935 18.3346C14.6077 18.3346 18.3327 14.6096 18.3327 10.0013C18.3327 5.39297 14.6077 1.66797 9.99935 1.66797ZM14.166 12.993L12.991 14.168L9.99935 11.1763L7.00768 14.168L5.83268 12.993L8.82435 10.0013L5.83268 7.00964L7.00768 5.83464L9.99935 8.8263L12.991 5.83464L14.166 7.00964L11.1743 10.0013L14.166 12.993Z" fill="black" fill-opacity="0.3"/>
</svg>