<svg xmlns="http://www.w3.org/2000/svg" width="116" height="90" viewBox="0 0 116 90" fill="none">
  <path d="M30.5 0H85.5C86.8261 0 88.0979 0.526784 89.0355 1.46447C89.9732 2.40215 90.5 3.67392 90.5 5V15H25.5V5C25.5 3.67392 26.0268 2.40215 26.9645 1.46447C27.9021 0.526784 29.1739 0 30.5 0Z" fill="url(#paint0_linear_6776_3033)"/>
  <path d="M25.5 15H90.5V85C90.5 86.3261 89.9732 87.5979 89.0355 88.5355C88.0979 89.4732 86.8261 90 85.5 90H30.5C29.1739 90 27.9021 89.4732 26.9645 88.5355C26.0268 87.5979 25.5 86.3261 25.5 85V15Z" fill="url(#paint1_linear_6776_3033)"/>
  <path d="M0.5 30H25.5V85H5.5C4.17392 85 2.90215 84.4732 1.96447 83.5355C1.02678 82.5979 0.5 81.3261 0.5 80V30Z" fill="url(#paint2_linear_6776_3033)"/>
  <path d="M5.5 20H25.5V30H0.5V25C0.5 23.6739 1.02678 22.4021 1.96447 21.4645C2.90215 20.5268 4.17392 20 5.5 20Z" fill="url(#paint3_linear_6776_3033)"/>
  <path d="M110.5 85H90.5V30H115.5V80C115.5 81.3261 114.973 82.5979 114.036 83.5355C113.098 84.4732 111.826 85 110.5 85Z" fill="url(#paint4_linear_6776_3033)"/>
  <path d="M115.5 30H90.5V20H110.5C111.826 20 113.098 20.5268 114.036 21.4645C114.973 22.4021 115.5 23.6739 115.5 25V30Z" fill="url(#paint5_linear_6776_3033)"/>
  <path d="M25.5 45H10.5C9.83696 45 9.20107 44.7366 8.73223 44.2678C8.26339 43.7989 8 43.163 8 42.5C8 41.837 8.26339 41.2011 8.73223 40.7322C9.20107 40.2634 9.83696 40 10.5 40H25.5V45Z" fill="#B4CDE1"/>
  <path d="M25.5 57.5H10.5C9.83696 57.5 9.20107 57.2366 8.73223 56.7678C8.26339 56.2989 8 55.663 8 55C8 54.337 8.26339 53.7011 8.73223 53.2322C9.20107 52.7634 9.83696 52.5 10.5 52.5H25.5V57.5Z" fill="#B4CDE1"/>
  <path d="M25.5 70H10.5C9.83696 70 9.20107 69.7366 8.73223 69.2678C8.26339 68.7989 8 68.163 8 67.5C8 66.837 8.26339 66.2011 8.73223 65.7322C9.20107 65.2634 9.83696 65 10.5 65H25.5V70Z" fill="#B4CDE1"/>
  <path d="M90.5 45H105.5C106.163 45 106.799 44.7366 107.268 44.2678C107.737 43.7989 108 43.163 108 42.5C108 41.837 107.737 41.2011 107.268 40.7322C106.799 40.2634 106.163 40 105.5 40H90.5V45Z" fill="#B4CDE1"/>
  <path d="M90.5 57.5H105.5C106.163 57.5 106.799 57.2366 107.268 56.7678C107.737 56.2989 108 55.663 108 55C108 54.337 107.737 53.7011 107.268 53.2322C106.799 52.7634 106.163 52.5 105.5 52.5H90.5V57.5Z" fill="#B4CDE1"/>
  <path d="M90.5 70H105.5C106.163 70 106.799 69.7366 107.268 69.2678C107.737 68.7989 108 68.163 108 67.5C108 66.837 107.737 66.2011 107.268 65.7322C106.799 65.2634 106.163 65 105.5 65H90.5V70Z" fill="#B4CDE1"/>
  <path d="M45.5009 38.5235L48.7259 41.7735C48.9595 42.0052 49.2365 42.1885 49.5411 42.3129C49.8457 42.4374 50.1719 42.5004 50.5009 42.4985C50.9974 42.5014 51.4836 42.3563 51.8974 42.0818C52.3112 41.8073 52.6339 41.4158 52.8243 40.9572C53.0147 40.4986 53.0642 39.9937 52.9666 39.5068C52.8689 39.0199 52.6284 38.5732 52.2759 38.2235L49.0259 34.9985L52.2759 31.7735C52.7466 31.3027 53.0111 30.6643 53.0111 29.9985C53.0111 29.3328 52.7466 28.6943 52.2759 28.2235C51.8051 27.7528 51.1666 27.4883 50.5009 27.4883C49.8351 27.4883 49.1966 27.7528 48.7259 28.2235L45.5009 31.4735L42.2759 28.2235C42.0428 27.9904 41.766 27.8055 41.4615 27.6794C41.1569 27.5532 40.8305 27.4883 40.5009 27.4883C40.1712 27.4883 39.8448 27.5532 39.5402 27.6794C39.2357 27.8055 38.959 27.9904 38.7259 28.2235C38.4928 28.4566 38.3079 28.7333 38.1817 29.0379C38.0556 29.3424 37.9906 29.6689 37.9906 29.9985C37.9906 30.3282 38.0556 30.6546 38.1817 30.9591C38.3079 31.2637 38.4928 31.5404 38.7259 31.7735L41.9759 34.9985L38.7259 38.2235C38.3733 38.5732 38.1328 39.0199 38.0352 39.5068C37.9375 39.9937 37.987 40.4986 38.1774 40.9572C38.3679 41.4158 38.6905 41.8073 39.1043 42.0818C39.5181 42.3563 40.0043 42.5014 40.5009 42.4985C41.8759 42.4985 42.2259 41.8235 45.5009 38.5235Z" fill="#8AD3FE"/>
  <path d="M74.0255 34.9985L77.2755 31.7735C77.7462 31.3027 78.0107 30.6643 78.0107 29.9985C78.0107 29.3328 77.7462 28.6943 77.2755 28.2235C76.8047 27.7528 76.1662 27.4883 75.5005 27.4883C74.8347 27.4883 74.1962 27.7528 73.7255 28.2235L70.5005 31.4735L67.2755 28.2235C66.8047 27.7528 66.1662 27.4883 65.5005 27.4883C64.8347 27.4883 64.1962 27.7528 63.7255 28.2235C63.2547 28.6943 62.9902 29.3328 62.9902 29.9985C62.9902 30.6643 63.2547 31.3027 63.7255 31.7735L66.9755 34.9985L63.7255 38.2235C63.2547 38.6943 62.9902 39.3328 62.9902 39.9985C62.9902 40.6643 63.2547 41.3027 63.7255 41.7735C64.1962 42.2443 64.8347 42.5087 65.5005 42.5087C66.1662 42.5087 66.8047 42.2443 67.2755 41.7735L70.5005 38.5235L73.7255 41.7735C74.1962 42.2443 74.8347 42.5087 75.5005 42.5087C76.1662 42.5087 76.8047 42.2443 77.2755 41.7735C77.7462 41.3027 78.0107 40.6643 78.0107 39.9985C78.0107 39.3328 77.7462 38.6943 77.2755 38.2235L74.0255 34.9985Z" fill="#8AD3FE"/>
  <path d="M41.6249 57.925C41.3184 58.0894 41.0495 58.316 40.8355 58.5903C40.6216 58.8645 40.4672 59.1804 40.3823 59.5178C40.2974 59.8551 40.2838 60.2064 40.3424 60.5493C40.401 60.8922 40.5305 61.219 40.7227 61.509C40.9148 61.799 41.1654 62.0457 41.4583 62.2333C41.7512 62.4209 42.08 62.5453 42.4238 62.5986C42.7675 62.6518 43.1186 62.6328 43.4546 62.5426C43.7906 62.4525 44.104 62.2932 44.3749 62.075C48.4104 59.3866 53.1509 57.9521 57.9999 57.9521C62.8489 57.9521 67.5894 59.3866 71.6249 62.075C72.0275 62.357 72.5084 62.5056 72.9999 62.5C73.534 62.4959 74.0528 62.3208 74.4802 62.0004C74.9075 61.68 75.2211 61.2312 75.3748 60.7196C75.5285 60.2081 75.5144 59.6608 75.3345 59.1579C75.1545 58.655 74.8182 58.2229 74.3749 57.925C69.5327 54.6737 63.8323 52.9375 57.9999 52.9375C52.1675 52.9375 46.4671 54.6737 41.6249 57.925Z" fill="#8AD3FE"/>
  <path d="M33 10C34.3807 10 35.5 8.88071 35.5 7.5C35.5 6.11929 34.3807 5 33 5C31.6193 5 30.5 6.11929 30.5 7.5C30.5 8.88071 31.6193 10 33 10Z" fill="#F0F7FC"/>
  <path d="M43 10C44.3807 10 45.5 8.88071 45.5 7.5C45.5 6.11929 44.3807 5 43 5C41.6193 5 40.5 6.11929 40.5 7.5C40.5 8.88071 41.6193 10 43 10Z" fill="#F0F7FC"/>
  <path d="M53 10C54.3807 10 55.5 8.88071 55.5 7.5C55.5 6.11929 54.3807 5 53 5C51.6193 5 50.5 6.11929 50.5 7.5C50.5 8.88071 51.6193 10 53 10Z" fill="#F0F7FC"/>
  <defs>
    <linearGradient id="paint0_linear_6776_3033" x1="58" y1="15" x2="58" y2="0" gradientUnits="userSpaceOnUse">
      <stop stop-color="#54A5FF"/>
      <stop offset="1" stop-color="#8AD3FE"/>
    </linearGradient>
    <linearGradient id="paint1_linear_6776_3033" x1="58" y1="90" x2="58" y2="15" gradientUnits="userSpaceOnUse">
      <stop stop-color="#D3E6F5"/>
      <stop offset="1" stop-color="#F0F7FC"/>
    </linearGradient>
    <linearGradient id="paint2_linear_6776_3033" x1="39.975" y1="57.5" x2="-5.475" y2="57.5" gradientUnits="userSpaceOnUse">
      <stop stop-color="#D3E6F5"/>
      <stop offset="0.56" stop-color="#E6F1FA"/>
      <stop offset="1" stop-color="#F0F7FC"/>
    </linearGradient>
    <linearGradient id="paint3_linear_6776_3033" x1="35.05" y1="25" x2="14.025" y2="25" gradientUnits="userSpaceOnUse">
      <stop stop-color="#FE9661"/>
      <stop offset="1" stop-color="#FFB369"/>
    </linearGradient>
    <linearGradient id="paint4_linear_6776_3033" x1="76.025" y1="57.5" x2="121.475" y2="57.5" gradientUnits="userSpaceOnUse">
      <stop stop-color="#D3E6F5"/>
      <stop offset="0.56" stop-color="#E6F1FA"/>
      <stop offset="1" stop-color="#F0F7FC"/>
    </linearGradient>
    <linearGradient id="paint5_linear_6776_3033" x1="80.95" y1="25" x2="101.975" y2="25" gradientUnits="userSpaceOnUse">
      <stop stop-color="#FE9661"/>
      <stop offset="1" stop-color="#FFB369"/>
    </linearGradient>
  </defs>
</svg>