<svg xmlns="http://www.w3.org/2000/svg" width="20" height="20" viewBox="0 0 20 20" fill="none">
  <path d="M10.8327 5.83464H9.16602V9.16797H5.83268V10.8346H9.16602V14.168H10.8327V10.8346H14.166V9.16797H10.8327V5.83464ZM9.99935 1.66797C5.39935 1.66797 1.66602 5.4013 1.66602 10.0013C1.66602 14.6013 5.39935 18.3346 9.99935 18.3346C14.5993 18.3346 18.3327 14.6013 18.3327 10.0013C18.3327 5.4013 14.5993 1.66797 9.99935 1.66797ZM9.99935 16.668C6.32435 16.668 3.33268 13.6763 3.33268 10.0013C3.33268 6.3263 6.32435 3.33464 9.99935 3.33464C13.6743 3.33464 16.666 6.3263 16.666 10.0013C16.666 13.6763 13.6743 16.668 9.99935 16.668Z" fill="white"/>
</svg>